<?xml version="1.0" encoding="UTF-8" standalone="no"?>
<!DOCTYPE svg PUBLIC "-//W3C//DTD SVG 1.1//EN"
 "http://www.w3.org/Graphics/SVG/1.1/DTD/svg11.dtd">
<!-- Generated by graphviz version 9.0.0 (20230911.1827)
 -->
<!-- Title: ocdfg Pages: 1 -->
<svg width="1223pt" height="394pt"
 viewBox="0.00 0.00 1223.32 394.06" xmlns="http://www.w3.org/2000/svg" xmlns:xlink="http://www.w3.org/1999/xlink">
<g id="graph0" class="graph" transform="scale(1 1) rotate(0) translate(4 390.06)">
<title>ocdfg</title>
<polygon fill="white" stroke="none" points="-4,4 -4,-390.06 1219.32,-390.06 1219.32,4 -4,4"/>
<!-- ae87632c&#45;f468&#45;466c&#45;bcea&#45;08744aabf202 -->
<g id="node1" class="node">
<title>ae87632c&#45;f468&#45;466c&#45;bcea&#45;08744aabf202</title>
<polygon fill="none" stroke="black" points="772.82,-204.06 673.57,-204.06 673.57,-168.06 772.82,-168.06 772.82,-204.06"/>
<text text-anchor="middle" x="723.19" y="-180.64" font-family="Times New Roman,serif" font-size="14.00">Assemble Bike</text>
</g>
<!-- 4c2f4601&#45;b505&#45;4a16&#45;a252&#45;d3e7194d0bd0 -->
<g id="node4" class="node">
<title>4c2f4601&#45;b505&#45;4a16&#45;a252&#45;d3e7194d0bd0</title>
<polygon fill="none" stroke="black" points="927.57,-312.06 855.32,-312.06 855.32,-276.06 927.57,-276.06 927.57,-312.06"/>
<text text-anchor="middle" x="891.44" y="-288.64" font-family="Times New Roman,serif" font-size="14.00">Pack Bike</text>
</g>
<!-- ae87632c&#45;f468&#45;466c&#45;bcea&#45;08744aabf202&#45;&gt;4c2f4601&#45;b505&#45;4a16&#45;a252&#45;d3e7194d0bd0 -->
<g id="edge9" class="edge">
<title>ae87632c&#45;f468&#45;466c&#45;bcea&#45;08744aabf202&#45;&gt;4c2f4601&#45;b505&#45;4a16&#45;a252&#45;d3e7194d0bd0</title>
<path fill="none" stroke="#e2deb6" d="M752.39,-204.39C779.98,-222.31 822.17,-249.72 852.65,-269.51"/>
<polygon fill="#e2deb6" stroke="#e2deb6" points="850.54,-272.32 860.83,-274.83 854.35,-266.45 850.54,-272.32"/>
<text text-anchor="middle" x="814.07" y="-261.96" font-family="Times New Roman,serif" font-size="8.00" fill="#e2deb6">Bike EC=15h</text>
</g>
<!-- ddb35b90&#45;2386&#45;4d98&#45;9b0f&#45;76b4c1ccb735 -->
<g id="node20" class="node">
<title>ddb35b90&#45;2386&#45;4d98&#45;9b0f&#45;76b4c1ccb735</title>
<polygon fill="none" stroke="none" points="918.44,-258.06 864.44,-258.06 864.44,-222.06 918.44,-222.06 918.44,-258.06"/>
<polyline fill="none" stroke="black" points="864.44,-222.06 918.44,-222.06"/>
<text text-anchor="middle" x="891.44" y="-234.64" font-family="Times New Roman,serif" font-size="14.00" fill="#ce3af8">Frame</text>
</g>
<!-- ae87632c&#45;f468&#45;466c&#45;bcea&#45;08744aabf202&#45;&gt;ddb35b90&#45;2386&#45;4d98&#45;9b0f&#45;76b4c1ccb735 -->
<g id="edge23" class="edge">
<title>ae87632c&#45;f468&#45;466c&#45;bcea&#45;08744aabf202&#45;&gt;ddb35b90&#45;2386&#45;4d98&#45;9b0f&#45;76b4c1ccb735</title>
<path fill="none" stroke="#ce3af8" d="M773.17,-201.97C798.81,-210.3 829.68,-220.33 853.32,-228.01"/>
<polygon fill="#ce3af8" stroke="#ce3af8" points="851.92,-231.23 862.51,-230.99 854.08,-224.57 851.92,-231.23"/>
</g>
<!-- 38f2f0af&#45;70ce&#45;4122&#45;98a5&#45;5dcff496fe39 -->
<g id="node21" class="node">
<title>38f2f0af&#45;70ce&#45;4122&#45;98a5&#45;5dcff496fe39</title>
<polygon fill="none" stroke="none" points="918.44,-150.06 864.44,-150.06 864.44,-114.06 918.44,-114.06 918.44,-150.06"/>
<polyline fill="none" stroke="black" points="864.44,-114.06 918.44,-114.06"/>
<text text-anchor="middle" x="891.44" y="-126.64" font-family="Times New Roman,serif" font-size="14.00" fill="#617190">Gears</text>
</g>
<!-- ae87632c&#45;f468&#45;466c&#45;bcea&#45;08744aabf202&#45;&gt;38f2f0af&#45;70ce&#45;4122&#45;98a5&#45;5dcff496fe39 -->
<g id="edge24" class="edge">
<title>ae87632c&#45;f468&#45;466c&#45;bcea&#45;08744aabf202&#45;&gt;38f2f0af&#45;70ce&#45;4122&#45;98a5&#45;5dcff496fe39</title>
<path fill="none" stroke="#617190" d="M773.17,-170.15C798.81,-161.83 829.68,-151.8 853.32,-144.12"/>
<polygon fill="#617190" stroke="#617190" points="854.08,-147.56 862.51,-141.14 851.92,-140.9 854.08,-147.56"/>
</g>
<!-- 4f7de1aa&#45;3227&#45;4aaa&#45;b89c&#45;6e0cf12bd0e0 -->
<g id="node26" class="node">
<title>4f7de1aa&#45;3227&#45;4aaa&#45;b89c&#45;6e0cf12bd0e0</title>
<polygon fill="none" stroke="none" points="920.07,-86.06 862.82,-86.06 862.82,-50.06 920.07,-50.06 920.07,-86.06"/>
<polyline fill="none" stroke="black" points="862.82,-50.06 920.07,-50.06"/>
<text text-anchor="middle" x="891.44" y="-62.64" font-family="Times New Roman,serif" font-size="14.00" fill="#d7cbc3">Wheels</text>
</g>
<!-- ae87632c&#45;f468&#45;466c&#45;bcea&#45;08744aabf202&#45;&gt;4f7de1aa&#45;3227&#45;4aaa&#45;b89c&#45;6e0cf12bd0e0 -->
<g id="edge29" class="edge">
<title>ae87632c&#45;f468&#45;466c&#45;bcea&#45;08744aabf202&#45;&gt;4f7de1aa&#45;3227&#45;4aaa&#45;b89c&#45;6e0cf12bd0e0</title>
<path fill="none" stroke="#d7cbc3" d="M750.17,-167.63C778.47,-147.54 823.91,-115.29 855.37,-92.96"/>
<polygon fill="#d7cbc3" stroke="#d7cbc3" points="857.29,-95.89 863.41,-87.25 853.23,-90.18 857.29,-95.89"/>
</g>
<!-- e1db4376&#45;645c&#45;4023&#45;b5d0&#45;8b1f48a135e3 -->
<g id="node2" class="node">
<title>e1db4376&#45;645c&#45;4023&#45;b5d0&#45;8b1f48a135e3</title>
<polygon fill="none" stroke="black" points="567.82,-180.06 496.32,-180.06 496.32,-144.06 567.82,-144.06 567.82,-180.06"/>
<text text-anchor="middle" x="532.07" y="-156.64" font-family="Times New Roman,serif" font-size="14.00">Configure</text>
</g>
<!-- e1db4376&#45;645c&#45;4023&#45;b5d0&#45;8b1f48a135e3&#45;&gt;ae87632c&#45;f468&#45;466c&#45;bcea&#45;08744aabf202 -->
<g id="edge4" class="edge">
<title>e1db4376&#45;645c&#45;4023&#45;b5d0&#45;8b1f48a135e3&#45;&gt;ae87632c&#45;f468&#45;466c&#45;bcea&#45;08744aabf202</title>
<path fill="none" stroke="#617190" d="M568.2,-166.52C594.55,-169.87 631.26,-174.53 662.23,-178.46"/>
<polygon fill="#617190" stroke="#617190" points="661.49,-181.89 671.85,-179.68 662.37,-174.94 661.49,-181.89"/>
<text text-anchor="middle" x="630.82" y="-178.96" font-family="Times New Roman,serif" font-size="8.00" fill="#617190">Gears EC=2D</text>
</g>
<!-- 64a6f4ce&#45;773f&#45;42cb&#45;908e&#45;b98050cb1ab5 -->
<g id="node3" class="node">
<title>64a6f4ce&#45;773f&#45;42cb&#45;908e&#45;b98050cb1ab5</title>
<polygon fill="none" stroke="black" points="1124.32,-231.06 1007.07,-231.06 1007.07,-195.06 1124.32,-195.06 1124.32,-231.06"/>
<text text-anchor="middle" x="1065.69" y="-207.64" font-family="Times New Roman,serif" font-size="14.00">Outgoing Delivery</text>
</g>
<!-- b11aae82&#45;4071&#45;401e&#45;83db&#45;8fdea5fc49e6 -->
<g id="node18" class="node">
<title>b11aae82&#45;4071&#45;401e&#45;83db&#45;8fdea5fc49e6</title>
<polygon fill="none" stroke="none" points="1215.32,-258.06 1161.32,-258.06 1161.32,-222.06 1215.32,-222.06 1215.32,-258.06"/>
<polyline fill="none" stroke="black" points="1161.32,-222.06 1215.32,-222.06"/>
<text text-anchor="middle" x="1188.32" y="-234.64" font-family="Times New Roman,serif" font-size="14.00" fill="#e2deb6">Bike</text>
</g>
<!-- 64a6f4ce&#45;773f&#45;42cb&#45;908e&#45;b98050cb1ab5&#45;&gt;b11aae82&#45;4071&#45;401e&#45;83db&#45;8fdea5fc49e6 -->
<g id="edge21" class="edge">
<title>64a6f4ce&#45;773f&#45;42cb&#45;908e&#45;b98050cb1ab5&#45;&gt;b11aae82&#45;4071&#45;401e&#45;83db&#45;8fdea5fc49e6</title>
<path fill="none" stroke="#e2deb6" d="M1124.53,-226.01C1133.24,-227.96 1142.03,-229.93 1150.15,-231.74"/>
<polygon fill="#e2deb6" stroke="#e2deb6" points="1149.11,-235.1 1159.64,-233.87 1150.64,-228.27 1149.11,-235.1"/>
</g>
<!-- 1564aec8&#45;4f88&#45;45c5&#45;af72&#45;6876e3d9ed57 -->
<g id="node25" class="node">
<title>1564aec8&#45;4f88&#45;45c5&#45;af72&#45;6876e3d9ed57</title>
<polygon fill="none" stroke="none" points="1215.32,-204.06 1161.32,-204.06 1161.32,-168.06 1215.32,-168.06 1215.32,-204.06"/>
<polyline fill="none" stroke="black" points="1161.32,-168.06 1215.32,-168.06"/>
<text text-anchor="middle" x="1188.32" y="-180.64" font-family="Times New Roman,serif" font-size="14.00" fill="#537dbb">Truck</text>
</g>
<!-- 64a6f4ce&#45;773f&#45;42cb&#45;908e&#45;b98050cb1ab5&#45;&gt;1564aec8&#45;4f88&#45;45c5&#45;af72&#45;6876e3d9ed57 -->
<g id="edge28" class="edge">
<title>64a6f4ce&#45;773f&#45;42cb&#45;908e&#45;b98050cb1ab5&#45;&gt;1564aec8&#45;4f88&#45;45c5&#45;af72&#45;6876e3d9ed57</title>
<path fill="none" stroke="#537dbb" d="M1124.53,-200.12C1133.24,-198.17 1142.03,-196.2 1150.15,-194.38"/>
<polygon fill="#537dbb" stroke="#537dbb" points="1150.64,-197.86 1159.64,-192.26 1149.11,-191.03 1150.64,-197.86"/>
</g>
<!-- 4c2f4601&#45;b505&#45;4a16&#45;a252&#45;d3e7194d0bd0&#45;&gt;64a6f4ce&#45;773f&#45;42cb&#45;908e&#45;b98050cb1ab5 -->
<g id="edge10" class="edge">
<title>4c2f4601&#45;b505&#45;4a16&#45;a252&#45;d3e7194d0bd0&#45;&gt;64a6f4ce&#45;773f&#45;42cb&#45;908e&#45;b98050cb1ab5</title>
<path fill="none" stroke="#e2deb6" d="M927.72,-277.48C952.94,-265.62 987.23,-249.49 1015.19,-236.34"/>
<polygon fill="#e2deb6" stroke="#e2deb6" points="1016.63,-239.53 1024.19,-232.11 1013.65,-233.2 1016.63,-239.53"/>
<text text-anchor="middle" x="967.32" y="-269.96" font-family="Times New Roman,serif" font-size="8.00" fill="#e2deb6">Bike EC=1D</text>
</g>
<!-- 4c2f4601&#45;b505&#45;4a16&#45;a252&#45;d3e7194d0bd0&#45;&gt;4c2f4601&#45;b505&#45;4a16&#45;a252&#45;d3e7194d0bd0 -->
<g id="edge11" class="edge">
<title>4c2f4601&#45;b505&#45;4a16&#45;a252&#45;d3e7194d0bd0&#45;&gt;4c2f4601&#45;b505&#45;4a16&#45;a252&#45;d3e7194d0bd0</title>
<path fill="none" stroke="#69505d" d="M877.72,-312.22C875.6,-321.6 880.18,-330.06 891.44,-330.06 897.78,-330.06 902,-327.39 904.1,-323.37"/>
<polygon fill="#69505d" stroke="#69505d" points="907.56,-324.01 905.02,-313.72 900.59,-323.34 907.56,-324.01"/>
<text text-anchor="middle" x="891.44" y="-332.96" font-family="Times New Roman,serif" font-size="8.00" fill="#69505d">Packer EC=1D</text>
</g>
<!-- 11adc052&#45;682b&#45;4773&#45;871d&#45;af0f857edded -->
<g id="node23" class="node">
<title>11adc052&#45;682b&#45;4773&#45;871d&#45;af0f857edded</title>
<polygon fill="none" stroke="none" points="1092.82,-312.06 1038.57,-312.06 1038.57,-276.06 1092.82,-276.06 1092.82,-312.06"/>
<polyline fill="none" stroke="black" points="1038.57,-276.06 1092.82,-276.06"/>
<text text-anchor="middle" x="1065.69" y="-288.64" font-family="Times New Roman,serif" font-size="14.00" fill="#69505d">Packer</text>
</g>
<!-- 4c2f4601&#45;b505&#45;4a16&#45;a252&#45;d3e7194d0bd0&#45;&gt;11adc052&#45;682b&#45;4773&#45;871d&#45;af0f857edded -->
<g id="edge26" class="edge">
<title>4c2f4601&#45;b505&#45;4a16&#45;a252&#45;d3e7194d0bd0&#45;&gt;11adc052&#45;682b&#45;4773&#45;871d&#45;af0f857edded</title>
<path fill="none" stroke="#69505d" d="M927.72,-294.06C956.52,-294.06 997.15,-294.06 1026.68,-294.06"/>
<polygon fill="#69505d" stroke="#69505d" points="1026.68,-297.56 1036.68,-294.06 1026.68,-290.56 1026.68,-297.56"/>
</g>
<!-- 87724f5a&#45;54a6&#45;407d&#45;9b0c&#45;41731a326298 -->
<g id="node5" class="node">
<title>87724f5a&#45;54a6&#45;407d&#45;9b0c&#45;41731a326298</title>
<polygon fill="none" stroke="black" points="573.44,-293.06 490.69,-293.06 490.69,-257.06 573.44,-257.06 573.44,-293.06"/>
<text text-anchor="middle" x="532.07" y="-269.64" font-family="Times New Roman,serif" font-size="14.00">Paint Frame</text>
</g>
<!-- 87724f5a&#45;54a6&#45;407d&#45;9b0c&#45;41731a326298&#45;&gt;ae87632c&#45;f468&#45;466c&#45;bcea&#45;08744aabf202 -->
<g id="edge6" class="edge">
<title>87724f5a&#45;54a6&#45;407d&#45;9b0c&#45;41731a326298&#45;&gt;ae87632c&#45;f468&#45;466c&#45;bcea&#45;08744aabf202</title>
<path fill="none" stroke="#ce3af8" d="M573.85,-261.16C598.06,-252.39 629.1,-240.26 655.57,-227.06 665.4,-222.16 675.67,-216.26 685.12,-210.49"/>
<polygon fill="#ce3af8" stroke="#ce3af8" points="686.71,-213.63 693.34,-205.36 683,-207.69 686.71,-213.63"/>
<text text-anchor="middle" x="630.82" y="-249.96" font-family="Times New Roman,serif" font-size="8.00" fill="#ce3af8">Frame EC=3D</text>
</g>
<!-- 87724f5a&#45;54a6&#45;407d&#45;9b0c&#45;41731a326298&#45;&gt;87724f5a&#45;54a6&#45;407d&#45;9b0c&#45;41731a326298 -->
<g id="edge7" class="edge">
<title>87724f5a&#45;54a6&#45;407d&#45;9b0c&#45;41731a326298&#45;&gt;87724f5a&#45;54a6&#45;407d&#45;9b0c&#45;41731a326298</title>
<path fill="none" stroke="#ff911f" d="M514.2,-293.22C511.45,-302.6 517.41,-311.06 532.07,-311.06 540.31,-311.06 545.8,-308.39 548.54,-304.37"/>
<polygon fill="#ff911f" stroke="#ff911f" points="551.98,-305.08 549.75,-294.72 545.04,-304.21 551.98,-305.08"/>
<text text-anchor="middle" x="532.07" y="-313.96" font-family="Times New Roman,serif" font-size="8.00" fill="#ff911f">Dryer EC=2D</text>
</g>
<!-- c323f29e&#45;8f47&#45;4445&#45;9987&#45;58a525b8cfd6 -->
<g id="node19" class="node">
<title>c323f29e&#45;8f47&#45;4445&#45;9987&#45;58a525b8cfd6</title>
<polygon fill="none" stroke="none" points="750.19,-332.06 696.19,-332.06 696.19,-296.06 750.19,-296.06 750.19,-332.06"/>
<polyline fill="none" stroke="black" points="696.19,-296.06 750.19,-296.06"/>
<text text-anchor="middle" x="723.19" y="-308.64" font-family="Times New Roman,serif" font-size="14.00" fill="#ff911f">Dryer</text>
</g>
<!-- 87724f5a&#45;54a6&#45;407d&#45;9b0c&#45;41731a326298&#45;&gt;c323f29e&#45;8f47&#45;4445&#45;9987&#45;58a525b8cfd6 -->
<g id="edge22" class="edge">
<title>87724f5a&#45;54a6&#45;407d&#45;9b0c&#45;41731a326298&#45;&gt;c323f29e&#45;8f47&#45;4445&#45;9987&#45;58a525b8cfd6</title>
<path fill="none" stroke="#ff911f" d="M573.64,-283.43C606.6,-290.23 652.73,-299.74 684.8,-306.35"/>
<polygon fill="#ff911f" stroke="#ff911f" points="683.95,-309.75 694.45,-308.34 685.37,-302.9 683.95,-309.75"/>
</g>
<!-- 28b87c03&#45;46ec&#45;4000&#45;809b&#45;b4ef981ae0b4 -->
<g id="node24" class="node">
<title>28b87c03&#45;46ec&#45;4000&#45;809b&#45;b4ef981ae0b4</title>
<polygon fill="none" stroke="none" points="763.82,-278.06 682.57,-278.06 682.57,-242.06 763.82,-242.06 763.82,-278.06"/>
<polyline fill="none" stroke="black" points="682.57,-242.06 763.82,-242.06"/>
<text text-anchor="middle" x="723.19" y="-254.64" font-family="Times New Roman,serif" font-size="14.00" fill="#507979">Spray. Inst.</text>
</g>
<!-- 87724f5a&#45;54a6&#45;407d&#45;9b0c&#45;41731a326298&#45;&gt;28b87c03&#45;46ec&#45;4000&#45;809b&#45;b4ef981ae0b4 -->
<g id="edge27" class="edge">
<title>87724f5a&#45;54a6&#45;407d&#45;9b0c&#45;41731a326298&#45;&gt;28b87c03&#45;46ec&#45;4000&#45;809b&#45;b4ef981ae0b4</title>
<path fill="none" stroke="#507979" d="M573.64,-271.85C602.13,-269.59 640.45,-266.55 671.03,-264.12"/>
<polygon fill="#507979" stroke="#507979" points="671.14,-267.63 680.83,-263.35 670.58,-260.65 671.14,-267.63"/>
</g>
<!-- efbfc9c2&#45;6fc2&#45;438a&#45;827a&#45;f93801125661 -->
<g id="node6" class="node">
<title>efbfc9c2&#45;6fc2&#45;438a&#45;827a&#45;f93801125661</title>
<polygon fill="none" stroke="black" points="374.13,-180.06 298.88,-180.06 298.88,-144.06 374.13,-144.06 374.13,-180.06"/>
<text text-anchor="middle" x="336.51" y="-156.64" font-family="Times New Roman,serif" font-size="14.00">Pick Items</text>
</g>
<!-- efbfc9c2&#45;6fc2&#45;438a&#45;827a&#45;f93801125661&#45;&gt;ae87632c&#45;f468&#45;466c&#45;bcea&#45;08744aabf202 -->
<g id="edge8" class="edge">
<title>efbfc9c2&#45;6fc2&#45;438a&#45;827a&#45;f93801125661&#45;&gt;ae87632c&#45;f468&#45;466c&#45;bcea&#45;08744aabf202</title>
<path fill="none" stroke="#d7cbc3" d="M374.34,-170.08C385.34,-172.4 397.43,-174.9 408.57,-177.06 438.48,-182.88 445.74,-186.15 476.07,-189.06 533.59,-194.58 548.28,-190.62 606.07,-191.06 628.07,-191.23 633.58,-191.89 655.57,-191.06 657.61,-190.99 659.68,-190.9 661.78,-190.8"/>
<polygon fill="#d7cbc3" stroke="#d7cbc3" points="661.8,-194.3 671.59,-190.25 661.41,-187.31 661.8,-194.3"/>
<text text-anchor="middle" x="532.07" y="-193.96" font-family="Times New Roman,serif" font-size="8.00" fill="#d7cbc3">Wheels EC=4D</text>
</g>
<!-- efbfc9c2&#45;6fc2&#45;438a&#45;827a&#45;f93801125661&#45;&gt;e1db4376&#45;645c&#45;4023&#45;b5d0&#45;8b1f48a135e3 -->
<g id="edge3" class="edge">
<title>efbfc9c2&#45;6fc2&#45;438a&#45;827a&#45;f93801125661&#45;&gt;e1db4376&#45;645c&#45;4023&#45;b5d0&#45;8b1f48a135e3</title>
<path fill="none" stroke="#617190" d="M374.37,-162.06C405.67,-162.06 450.76,-162.06 484.54,-162.06"/>
<polygon fill="#617190" stroke="#617190" points="484.46,-165.56 494.46,-162.06 484.46,-158.56 484.46,-165.56"/>
<text text-anchor="middle" x="433.32" y="-164.96" font-family="Times New Roman,serif" font-size="8.00" fill="#617190">Gears EC=23h</text>
</g>
<!-- efbfc9c2&#45;6fc2&#45;438a&#45;827a&#45;f93801125661&#45;&gt;87724f5a&#45;54a6&#45;407d&#45;9b0c&#45;41731a326298 -->
<g id="edge5" class="edge">
<title>efbfc9c2&#45;6fc2&#45;438a&#45;827a&#45;f93801125661&#45;&gt;87724f5a&#45;54a6&#45;407d&#45;9b0c&#45;41731a326298</title>
<path fill="none" stroke="#ce3af8" d="M353.84,-180.31C367.37,-194.57 387.71,-214.07 408.57,-227.06 430.48,-240.71 456.91,-251.67 479.61,-259.64"/>
<polygon fill="#ce3af8" stroke="#ce3af8" points="478.39,-262.92 488.99,-262.83 480.65,-256.3 478.39,-262.92"/>
<text text-anchor="middle" x="433.32" y="-253.96" font-family="Times New Roman,serif" font-size="8.00" fill="#ce3af8">Frame EC=1h</text>
</g>
<!-- 10dc8343&#45;203d&#45;470e&#45;aef6&#45;c385efdc2ee3 -->
<g id="node7" class="node">
<title>10dc8343&#45;203d&#45;470e&#45;aef6&#45;c385efdc2ee3</title>
<polygon fill="none" stroke="black" points="588.07,-72.06 476.07,-72.06 476.07,-36.06 588.07,-36.06 588.07,-72.06"/>
<text text-anchor="middle" x="532.07" y="-48.64" font-family="Times New Roman,serif" font-size="14.00">Receive Payment</text>
</g>
<!-- efbfc9c2&#45;6fc2&#45;438a&#45;827a&#45;f93801125661&#45;&gt;10dc8343&#45;203d&#45;470e&#45;aef6&#45;c385efdc2ee3 -->
<g id="edge2" class="edge">
<title>efbfc9c2&#45;6fc2&#45;438a&#45;827a&#45;f93801125661&#45;&gt;10dc8343&#45;203d&#45;470e&#45;aef6&#45;c385efdc2ee3</title>
<path fill="none" stroke="#d2b98e" d="M367.69,-143.56C395.52,-126.71 438.14,-101.43 476.07,-81.06 478.24,-79.9 480.47,-78.72 482.72,-77.55"/>
<polygon fill="#d2b98e" stroke="#d2b98e" points="484.06,-80.8 491.37,-73.13 480.87,-74.57 484.06,-80.8"/>
<text text-anchor="middle" x="433.32" y="-119.96" font-family="Times New Roman,serif" font-size="8.00" fill="#d2b98e">Order EC=9D</text>
</g>
<!-- efbfc9c2&#45;6fc2&#45;438a&#45;827a&#45;f93801125661&#45;&gt;4f7de1aa&#45;3227&#45;4aaa&#45;b89c&#45;6e0cf12bd0e0 -->
<g id="edge30" class="edge">
<title>efbfc9c2&#45;6fc2&#45;438a&#45;827a&#45;f93801125661&#45;&gt;4f7de1aa&#45;3227&#45;4aaa&#45;b89c&#45;6e0cf12bd0e0</title>
<path fill="none" stroke="#d7cbc3" d="M348.84,-143.85C369.54,-112.58 416.83,-49.87 476.07,-27.06 599.15,20.31 642.78,-5.05 772.82,-27.06 800.12,-31.69 829.54,-41.94 852.12,-51.04"/>
<polygon fill="#d7cbc3" stroke="#d7cbc3" points="850.65,-54.22 861.23,-54.8 853.32,-47.75 850.65,-54.22"/>
</g>
<!-- fc49418b&#45;7363&#45;4b30&#45;a649&#45;7cf5f829150c -->
<g id="node22" class="node">
<title>fc49418b&#45;7363&#45;4b30&#45;a649&#45;7cf5f829150c</title>
<polygon fill="none" stroke="none" points="750.19,-72.06 696.19,-72.06 696.19,-36.06 750.19,-36.06 750.19,-72.06"/>
<polyline fill="none" stroke="black" points="696.19,-36.06 750.19,-36.06"/>
<text text-anchor="middle" x="723.19" y="-48.64" font-family="Times New Roman,serif" font-size="14.00" fill="#d2b98e">Order</text>
</g>
<!-- 10dc8343&#45;203d&#45;470e&#45;aef6&#45;c385efdc2ee3&#45;&gt;fc49418b&#45;7363&#45;4b30&#45;a649&#45;7cf5f829150c -->
<g id="edge25" class="edge">
<title>10dc8343&#45;203d&#45;470e&#45;aef6&#45;c385efdc2ee3&#45;&gt;fc49418b&#45;7363&#45;4b30&#45;a649&#45;7cf5f829150c</title>
<path fill="none" stroke="#d2b98e" d="M588.53,-54.06C619.39,-54.06 656.99,-54.06 684.44,-54.06"/>
<polygon fill="#d2b98e" stroke="#d2b98e" points="684.39,-57.56 694.39,-54.06 684.39,-50.56 684.39,-57.56"/>
</g>
<!-- 2c1a9431&#45;3fff&#45;4b2c&#45;8be9&#45;b3cec5c7f615 -->
<g id="node8" class="node">
<title>2c1a9431&#45;3fff&#45;4b2c&#45;8be9&#45;b3cec5c7f615</title>
<polygon fill="none" stroke="black" points="200.7,-261.06 102.2,-261.06 102.2,-225.06 200.7,-225.06 200.7,-261.06"/>
<text text-anchor="middle" x="151.45" y="-237.64" font-family="Times New Roman,serif" font-size="14.00">Register Order</text>
</g>
<!-- 2c1a9431&#45;3fff&#45;4b2c&#45;8be9&#45;b3cec5c7f615&#45;&gt;efbfc9c2&#45;6fc2&#45;438a&#45;827a&#45;f93801125661 -->
<g id="edge1" class="edge">
<title>2c1a9431&#45;3fff&#45;4b2c&#45;8be9&#45;b3cec5c7f615&#45;&gt;efbfc9c2&#45;6fc2&#45;438a&#45;827a&#45;f93801125661</title>
<path fill="none" stroke="#d2b98e" d="M193.99,-224.68C221.99,-212.3 258.99,-195.92 288.13,-183.03"/>
<polygon fill="#d2b98e" stroke="#d2b98e" points="289.37,-186.31 297.1,-179.06 286.54,-179.91 289.37,-186.31"/>
<text text-anchor="middle" x="241.58" y="-214.96" font-family="Times New Roman,serif" font-size="8.00" fill="#d2b98e">Order EC=2h</text>
</g>
<!-- 5734471c&#45;5f7c&#45;47a8&#45;9d9a&#45;7f7e31648113 -->
<g id="node9" class="node">
<title>5734471c&#45;5f7c&#45;47a8&#45;9d9a&#45;7f7e31648113</title>
<ellipse fill="#e2deb6" stroke="black" cx="532.07" cy="-108.06" rx="27.11" ry="18"/>
<text text-anchor="middle" x="532.07" y="-102.64" font-family="Times New Roman,serif" font-size="14.00">Bike</text>
</g>
<!-- 5734471c&#45;5f7c&#45;47a8&#45;9d9a&#45;7f7e31648113&#45;&gt;ae87632c&#45;f468&#45;466c&#45;bcea&#45;08744aabf202 -->
<g id="edge12" class="edge">
<title>5734471c&#45;5f7c&#45;47a8&#45;9d9a&#45;7f7e31648113&#45;&gt;ae87632c&#45;f468&#45;466c&#45;bcea&#45;08744aabf202</title>
<path fill="none" stroke="#e2deb6" stroke-width="2.6" d="M555.51,-117.32C582.29,-128.36 628.08,-147.25 664.89,-162.43"/>
<polygon fill="#e2deb6" stroke="#e2deb6" stroke-width="2.6" points="663.28,-165.55 673.86,-166.13 665.95,-159.08 663.28,-165.55"/>
</g>
<!-- 37d6a39b&#45;fb49&#45;43ba&#45;b1de&#45;c7e786dca17f -->
<g id="node10" class="node">
<title>37d6a39b&#45;fb49&#45;43ba&#45;b1de&#45;c7e786dca17f</title>
<ellipse fill="#ff911f" stroke="black" cx="336.51" cy="-329.06" rx="31.6" ry="18"/>
<text text-anchor="middle" x="336.51" y="-323.64" font-family="Times New Roman,serif" font-size="14.00">Dryer</text>
</g>
<!-- 37d6a39b&#45;fb49&#45;43ba&#45;b1de&#45;c7e786dca17f&#45;&gt;87724f5a&#45;54a6&#45;407d&#45;9b0c&#45;41731a326298 -->
<g id="edge13" class="edge">
<title>37d6a39b&#45;fb49&#45;43ba&#45;b1de&#45;c7e786dca17f&#45;&gt;87724f5a&#45;54a6&#45;407d&#45;9b0c&#45;41731a326298</title>
<path fill="none" stroke="#ff911f" d="M365.24,-321.33C394.89,-313.06 442.59,-299.75 479.23,-289.53"/>
<polygon fill="#ff911f" stroke="#ff911f" points="480.07,-292.93 488.76,-286.87 478.19,-286.18 480.07,-292.93"/>
</g>
<!-- 85de68ab&#45;7f02&#45;4e90&#45;8c88&#45;2c0a8236a6c2 -->
<g id="node11" class="node">
<title>85de68ab&#45;7f02&#45;4e90&#45;8c88&#45;2c0a8236a6c2</title>
<ellipse fill="#ce3af8" stroke="black" cx="151.45" cy="-189.06" rx="34.1" ry="18"/>
<text text-anchor="middle" x="151.45" y="-183.64" font-family="Times New Roman,serif" font-size="14.00">Frame</text>
</g>
<!-- 85de68ab&#45;7f02&#45;4e90&#45;8c88&#45;2c0a8236a6c2&#45;&gt;efbfc9c2&#45;6fc2&#45;438a&#45;827a&#45;f93801125661 -->
<g id="edge14" class="edge">
<title>85de68ab&#45;7f02&#45;4e90&#45;8c88&#45;2c0a8236a6c2&#45;&gt;efbfc9c2&#45;6fc2&#45;438a&#45;827a&#45;f93801125661</title>
<path fill="none" stroke="#ce3af8" d="M184.76,-184.3C213.22,-180.1 255.07,-173.93 287.46,-169.15"/>
<polygon fill="#ce3af8" stroke="#ce3af8" points="287.61,-172.67 296.99,-167.75 286.59,-165.74 287.61,-172.67"/>
</g>
<!-- be5874c1&#45;0ff8&#45;4f03&#45;beb6&#45;7f33868696e4 -->
<g id="node12" class="node">
<title>be5874c1&#45;0ff8&#45;4f03&#45;beb6&#45;7f33868696e4</title>
<ellipse fill="#617190" stroke="black" cx="151.45" cy="-135.06" rx="32.6" ry="18"/>
<text text-anchor="middle" x="151.45" y="-129.64" font-family="Times New Roman,serif" font-size="14.00">Gears</text>
</g>
<!-- be5874c1&#45;0ff8&#45;4f03&#45;beb6&#45;7f33868696e4&#45;&gt;efbfc9c2&#45;6fc2&#45;438a&#45;827a&#45;f93801125661 -->
<g id="edge15" class="edge">
<title>be5874c1&#45;0ff8&#45;4f03&#45;beb6&#45;7f33868696e4&#45;&gt;efbfc9c2&#45;6fc2&#45;438a&#45;827a&#45;f93801125661</title>
<path fill="none" stroke="#617190" d="M183.51,-139.64C211.97,-143.84 254.57,-150.13 287.44,-154.97"/>
<polygon fill="#617190" stroke="#617190" points="286.72,-158.41 297.12,-156.4 287.74,-151.48 286.72,-158.41"/>
</g>
<!-- d5a5c01b&#45;ae6a&#45;4844&#45;a062&#45;4af24b1f063b -->
<g id="node13" class="node">
<title>d5a5c01b&#45;ae6a&#45;4844&#45;a062&#45;4af24b1f063b</title>
<ellipse fill="#d2b98e" stroke="black" cx="32.6" cy="-243.06" rx="32.6" ry="18"/>
<text text-anchor="middle" x="32.6" y="-237.64" font-family="Times New Roman,serif" font-size="14.00">Order</text>
</g>
<!-- d5a5c01b&#45;ae6a&#45;4844&#45;a062&#45;4af24b1f063b&#45;&gt;2c1a9431&#45;3fff&#45;4b2c&#45;8be9&#45;b3cec5c7f615 -->
<g id="edge16" class="edge">
<title>d5a5c01b&#45;ae6a&#45;4844&#45;a062&#45;4af24b1f063b&#45;&gt;2c1a9431&#45;3fff&#45;4b2c&#45;8be9&#45;b3cec5c7f615</title>
<path fill="none" stroke="#d2b98e" d="M65.53,-243.06C73.33,-243.06 81.93,-243.06 90.57,-243.06"/>
<polygon fill="#d2b98e" stroke="#d2b98e" points="90.38,-246.56 100.38,-243.06 90.38,-239.56 90.38,-246.56"/>
</g>
<!-- fbf4e433&#45;8b07&#45;49f5&#45;96b2&#45;3a2f0ba63ae9 -->
<g id="node14" class="node">
<title>fbf4e433&#45;8b07&#45;49f5&#45;96b2&#45;3a2f0ba63ae9</title>
<ellipse fill="#69505d" stroke="black" cx="723.19" cy="-368.06" rx="36.09" ry="18"/>
<text text-anchor="middle" x="723.19" y="-362.64" font-family="Times New Roman,serif" font-size="14.00">Packer</text>
</g>
<!-- fbf4e433&#45;8b07&#45;49f5&#45;96b2&#45;3a2f0ba63ae9&#45;&gt;4c2f4601&#45;b505&#45;4a16&#45;a252&#45;d3e7194d0bd0 -->
<g id="edge17" class="edge">
<title>fbf4e433&#45;8b07&#45;49f5&#45;96b2&#45;3a2f0ba63ae9&#45;&gt;4c2f4601&#45;b505&#45;4a16&#45;a252&#45;d3e7194d0bd0</title>
<path fill="none" stroke="#69505d" d="M750.9,-356.18C776.19,-344.92 814.67,-327.79 844.82,-314.37"/>
<polygon fill="#69505d" stroke="#69505d" points="846.01,-317.67 853.72,-310.41 843.16,-311.28 846.01,-317.67"/>
</g>
<!-- bedb0abf&#45;8cad&#45;4053&#45;95a2&#45;907b87557c93 -->
<g id="node15" class="node">
<title>bedb0abf&#45;8cad&#45;4053&#45;95a2&#45;907b87557c93</title>
<ellipse fill="#507979" stroke="black" cx="336.51" cy="-275.06" rx="54.06" ry="18"/>
<text text-anchor="middle" x="336.51" y="-269.64" font-family="Times New Roman,serif" font-size="14.00">Spray. Inst.</text>
</g>
<!-- bedb0abf&#45;8cad&#45;4053&#45;95a2&#45;907b87557c93&#45;&gt;87724f5a&#45;54a6&#45;407d&#45;9b0c&#45;41731a326298 -->
<g id="edge18" class="edge">
<title>bedb0abf&#45;8cad&#45;4053&#45;95a2&#45;907b87557c93&#45;&gt;87724f5a&#45;54a6&#45;407d&#45;9b0c&#45;41731a326298</title>
<path fill="none" stroke="#507979" d="M390.91,-275.06C418.43,-275.06 451.84,-275.06 479.13,-275.06"/>
<polygon fill="#507979" stroke="#507979" points="478.91,-278.56 488.91,-275.06 478.91,-271.56 478.91,-278.56"/>
</g>
<!-- f1960fc5&#45;69a4&#45;4682&#45;9c56&#45;5d12fba450b2 -->
<g id="node16" class="node">
<title>f1960fc5&#45;69a4&#45;4682&#45;9c56&#45;5d12fba450b2</title>
<ellipse fill="#537dbb" stroke="black" cx="891.44" cy="-186.06" rx="33.1" ry="18"/>
<text text-anchor="middle" x="891.44" y="-180.64" font-family="Times New Roman,serif" font-size="14.00">Truck</text>
</g>
<!-- f1960fc5&#45;69a4&#45;4682&#45;9c56&#45;5d12fba450b2&#45;&gt;64a6f4ce&#45;773f&#45;42cb&#45;908e&#45;b98050cb1ab5 -->
<g id="edge19" class="edge">
<title>f1960fc5&#45;69a4&#45;4682&#45;9c56&#45;5d12fba450b2&#45;&gt;64a6f4ce&#45;773f&#45;42cb&#45;908e&#45;b98050cb1ab5</title>
<path fill="none" stroke="#537dbb" d="M923.64,-190.95C943.73,-194.1 970.67,-198.33 995.62,-202.24"/>
<polygon fill="#537dbb" stroke="#537dbb" points="995,-205.68 1005.42,-203.77 996.08,-198.77 995,-205.68"/>
</g>
<!-- 8f0e80be&#45;8385&#45;4655&#45;8058&#45;bff013133496 -->
<g id="node17" class="node">
<title>8f0e80be&#45;8385&#45;4655&#45;8058&#45;bff013133496</title>
<ellipse fill="#d7cbc3" stroke="black" cx="151.45" cy="-81.06" rx="38.09" ry="18"/>
<text text-anchor="middle" x="151.45" y="-75.64" font-family="Times New Roman,serif" font-size="14.00">Wheels</text>
</g>
<!-- 8f0e80be&#45;8385&#45;4655&#45;8058&#45;bff013133496&#45;&gt;efbfc9c2&#45;6fc2&#45;438a&#45;827a&#45;f93801125661 -->
<g id="edge20" class="edge">
<title>8f0e80be&#45;8385&#45;4655&#45;8058&#45;bff013133496&#45;&gt;efbfc9c2&#45;6fc2&#45;438a&#45;827a&#45;f93801125661</title>
<path fill="none" stroke="#d7cbc3" stroke-width="2.6" d="M180.25,-93.37C208.28,-105.77 252.13,-125.17 286.09,-140.2"/>
<polygon fill="#d7cbc3" stroke="#d7cbc3" stroke-width="2.6" points="284.41,-143.28 294.97,-144.13 287.24,-136.88 284.41,-143.28"/>
</g>
</g>
</svg>
